{"title":"Despicable Me 2010 PPVRip x264-Jucified","uid":5942353,"size":367208099,"categoryP":"video","categoryS":"movies","magnet":"?xt=urn:btih:e4ab5617d075cadce9be42d970c1a3f315b7666a&amp;dn=Despicable+Me+2010+PPVRip+x264-Jucified&amp;tr=udp%3A%2F%2Ftracker.openbittorrent.com%3A80&amp;tr=udp%3A%2F%2Fopen.demonii.com%3A1337&amp;tr=udp%3A%2F%2Ftracker.coppersurfer.tk%3A6969&amp;tr=udp%3A%2F%2Fexodus.desync.com%3A6969","seeders":0,"leechers":1,"uploader":"Horrorspoke","files":-1,"time":1289176226,"description":"Plot\n\nIn a happy suburban neighborhood surrounded by white picket fences with flowering rose bushes, sits a black house with a dead lawn. Unbeknownst to the neighbors, hidden beneath this home is a vast secret hideout. Surrounded by a small army of minions, we discover Gru, planning the biggest heist in the history of the world. He is going to steal the moon. (Yes, the moon!) Gru delights in all things wicked. Armed with his arsenal of shrink rays, freeze rays, and battle-ready vehicles for land and air, he vanquishes all who stand in his way. Until the day he encounters the immense will of three little orphaned girls who look at him and see something that no one else has ever seen: a potential Dad. The world's greatest villain has just met his greatest challenge: three little girls named Margo, Edith and Agnes. \n\n\n\nGeneral\n\nComplete name                    : Despicable Me 2010 PPVRip x264-Jucified        (350MB).mp4\nFormat                           : MPEG-4\nFormat profile                   : Base Media\nCodec ID                         : isom\nFile size                        : 350 MiB\nDuration                         : 1h 30mn\nOverall bit rate                 : 540 Kbps\n\n\nVideo\n\nFormat                           : AVC\nFormat/Info                      : Advanced Video Codec\nFormat profile                   : &lt;a class=&quot;__cf_email__&quot; href=&quot;/cdn-cgi/l/email-protection&quot; data-cfemail=&quot;b1f9d8d6d9f1fd859f80&quot;&gt;[email&amp;#160;protected]&lt;/a&gt;&lt;script cf-hash='f9e31' type=&quot;text/javascript&quot;&gt;\n/* &lt;![CDATA[ */!function(){try{var t=&quot;currentScript&quot;in document?document.currentScript:function(){for(var t=document.getElementsByTagName(&quot;script&quot;),e=t.length;e--;)if(t[e].getAttribute(&quot;cf-hash&quot;))return t[e]}();if(t&amp;&amp;t.previousSibling){var e,r,n,i,c=t.previousSibling,a=c.getAttribute(&quot;data-cfemail&quot;);if(a){for(e=&quot;&quot;,r=parseInt(a.substr(0,2),16),n=2;a.length-n;n+=2)i=parseInt(a.substr(n,2),16)^r,e+=String.fromCharCode(i);e=document.createTextNode(e),c.parentNode.replaceChild(e,c)}}}catch(u){}}();/* ]]&gt; */&lt;/script&gt;\nFormat settings, CABAC           : Yes\nFormat settings, ReFrames        : 2 frames\nCodec ID                         : avc1\nCodec ID/Info                    : Advanced Video Coding\nDuration                         : 1h 30mn\nBit rate mode                    : Variable\nBit rate                         : 504 Kbps\nMaximum bit rate                 : 1 494 Kbps\nWidth                            : 528 pixels\nHeight                           : 384 pixels\nDisplay aspect ratio             : 1.375\nFrame rate mode                  : Constant\nFrame rate                       : 23.976 fps\nResolution                       : 24 bits\nColorimetry                      : 4:2:0\nScan type                        : Progressive\nBits/(Pixel*Frame)               : 0.104\nStream size                      : 327 MiB (93%)\n\n\nAudio\n\nFormat                           : AAC\nFormat/Info                      : Advanced Audio Codec\nFormat version                   : Version 4\nFormat profile                   : LC\nFormat settings, SBR             : No\nCodec ID                         : 40\nDuration                         : 1h 30mn\nBit rate mode                    : Variable\nBit rate                         : 32.0 Kbps\nMaximum bit rate                 : 44.3 Kbps\nChannel(s)                       : 2 channels\nChannel positions                : L R\nSampling rate                    : 48.0 KHz\nResolution                       : 16 bits\nStream size                      : 20.8 MiB (6%)\n\n\nSCREENS:\n &lt;a href=&quot;\nhttp://www.freeimagehosting.net/uploads/9cc55528b4.png&quot; rel=&quot;nofollow&quot; target=&quot;_NEW&quot;&gt;\nhttp://www.freeimagehosting.net/uploads/9cc55528b4.png&lt;/a&gt; &lt;a href=&quot;\nhttp://www.freeimagehosting.net/uploads/55e7056cf3.png&quot; rel=&quot;nofollow&quot; target=&quot;_NEW&quot;&gt;\nhttp://www.freeimagehosting.net/uploads/55e7056cf3.png&lt;/a&gt; &lt;a href=&quot;\nhttp://www.freeimagehosting.net/uploads/36eb190d52.png&quot; rel=&quot;nofollow&quot; target=&quot;_NEW&quot;&gt;\nhttp://www.freeimagehosting.net/uploads/36eb190d52.png&lt;/a&gt; &lt;a href=&quot;\nhttp://www.freeimagehosting.net/uploads/147fae08fa.png&quot; rel=&quot;nofollow&quot; target=&quot;_NEW&quot;&gt;\nhttp://www.freeimagehosting.net/uploads/147fae08fa.png&lt;/a&gt;\n\nSEED AND ENJOY FOLKS!!!","torrent":{"xt":"urn:btih:e4ab5617d075cadce9be42d970c1a3f315b7666a","amp;dn":"Despicable+Me+2010+PPVRip+x264-Jucified","amp;tr":["udp%3A%2F%2Ftracker.openbittorrent.com%3A80","udp%3A%2F%2Fopen.demonii.com%3A1337","udp%3A%2F%2Ftracker.coppersurfer.tk%3A6969","udp%3A%2F%2Fexodus.desync.com%3A6969"],"infoHash":"e4ab5617d075cadce9be42d970c1a3f315b7666a","infoHashBuffer":{"type":"Buffer","data":[228,171,86,23,208,117,202,220,233,190,66,217,112,193,163,243,21,183,102,106]},"announce":[],"urlList":[]}}